# xmcd
#
# Track frame offsets:
#	150
#	14808
#	31151
#	45410
#	59722
#	74703
#	88030
#	110755
#	125186
#	136453
#	154167
#	169119
#	183676
#	196901
#	210809
#	226363
#	240845
#	255971
#	268715
#	282620
#
# Disc length: 3958 seconds
#
# Revision: 1
# Processed by: cddbd v1.5.2PL0 Copyright (c) Steve Scherf et al.
# Submitted via: audiograbber 1.83.01
#
DISCID=2b0f7414
DTITLE=Truck Stop - Das große Jubiläum - 01 - Unsere größten Hits
DYEAR=2018
DGENRE=Country
TTITLE0=Louisiana Ladies
TTITLE1=Ich möcht' so gern Dave Dudley hör'n (Neuaufnahme)
TTITLE2=Die Lady und der Tramp
TTITLE3=Tanz mit mir
TTITLE4=Lass dir nie den Tag verderben
TTITLE5=Arizona, Arizona (Neuaufnahme)
TTITLE6=Alles Bingo (Maxi Version)
TTITLE7=Du bist immer auf Achse
TTITLE8=Großstadtrevier (Neuaufnahme)
TTITLE9=Wenn es Nacht wird in Old Tucson
TTITLE10=Emmylou, Emmylou
TTITLE11=Pack dein Herz in einen Koffer
TTITLE12=Uns're Herzen (schlagen für den Wilden Westen)
TTITLE13=Take it Easy, altes Haus (Neuaufnahme)
TTITLE14=Maschen-Draht-Zaun (German Version)
TTITLE15=Von Arizona bis Old Texas Town
TTITLE16=Der Sheriff hat heute Geburtstag (Radio Version)
TTITLE17=Was soll'n wir denn in Nashville
TTITLE18=Der wilde wilde Westen (Neuaufnahme)
TTITLE19=Die Party geht weiter
EXTD=
EXTT0=
EXTT1=
EXTT2=
EXTT3=
EXTT4=
EXTT5=
EXTT6=
EXTT7=
EXTT8=
EXTT9=
EXTT10=
EXTT11=
EXTT12=
EXTT13=
EXTT14=
EXTT15=
EXTT16=
EXTT17=
EXTT18=
EXTT19=
PLAYORDER=
